<svg width="32" height="32" viewBox="0 0 32 32" fill="none" xmlns="http://www.w3.org/2000/svg">
<path d="M16 32C24.8366 32 32 24.8366 32 16C32 7.16344 24.8366 0 16 0C7.16344 0 0 7.16344 0 16C0 24.8366 7.16344 32 16 32Z" fill="#3D3E60"/>
<path d="M19.7017 6.8418H12.2983C9.2895 6.8418 6.84175 9.28955 6.84175 12.2983V19.7017C6.84175 22.7104 9.2895 25.1583 12.2983 25.1583H19.7018C22.7104 25.1583 25.1583 22.7105 25.1583 19.7017V12.2983C25.1583 9.28955 22.7104 6.8418 19.7017 6.8418ZM23.3156 19.7018C23.3156 21.6977 21.6976 23.3157 19.7018 23.3157H12.2983C10.3024 23.3157 8.68444 21.6977 8.68444 19.7018V12.2984C8.68444 10.3025 10.3024 8.68442 12.2983 8.68442H19.7018C21.6976 8.68442 23.3156 10.3025 23.3156 12.2984V19.7018Z" fill="white"/>
<path d="M16 11.2627C13.3878 11.2627 11.2626 13.3879 11.2626 16.0001C11.2626 18.612 13.3878 20.7373 16 20.7373C18.6121 20.7373 20.7372 18.6122 20.7372 16.0001C20.7372 13.3879 18.6121 11.2627 16 11.2627ZM16 18.8946C14.4013 18.8946 13.1052 17.5988 13.1052 16.0001C13.1052 14.4013 14.4013 13.1053 16 13.1053C17.5987 13.1053 18.8945 14.4013 18.8945 16.0001C18.8945 17.5988 17.5987 18.8946 16 18.8946Z" fill="white"/>
</svg>
