<svg width="32" height="32" viewBox="0 0 32 32" fill="none" xmlns="http://www.w3.org/2000/svg">
<path d="M16 32C24.8366 32 32 24.8366 32 16C32 7.16344 24.8366 0 16 0C7.16344 0 0 7.16344 0 16C0 24.8366 7.16344 32 16 32Z" fill="#3D3E60"/>
<path d="M25.8006 11.4988C25.1149 11.8028 24.3773 12.0084 23.6038 12.1003C24.3936 11.6271 24.9997 10.8784 25.2857 9.98483C24.5468 10.4232 23.7279 10.7412 22.8571 10.9126C22.1595 10.1697 21.1655 9.70532 20.0649 9.70532C17.9532 9.70532 16.2404 11.418 16.2404 13.5298C16.2404 13.8295 16.2744 14.1213 16.34 14.4014C13.1615 14.242 10.3433 12.7195 8.45691 10.405C8.12778 10.9697 7.93896 11.6271 7.93896 12.3279C7.93896 13.6544 8.61464 14.8255 9.64027 15.5112C9.01365 15.4915 8.42354 15.3195 7.90816 15.0323C7.90787 15.0485 7.90787 15.0648 7.90787 15.0808C7.90787 16.9338 9.22671 18.4794 10.9759 18.8305C10.6554 18.9183 10.3168 18.9648 9.96855 18.9648C9.72156 18.9648 9.48226 18.9412 9.24896 18.8967C9.73553 20.4157 11.1476 21.5215 12.8216 21.5526C11.5124 22.5785 9.86359 23.1897 8.0713 23.1897C7.76327 23.1897 7.45809 23.1718 7.15947 23.1361C8.85108 24.2216 10.8618 24.8545 13.0215 24.8545C20.056 24.8545 23.903 19.027 23.903 13.9727C23.903 13.807 23.8993 13.6419 23.8919 13.4781C24.6397 12.9391 25.288 12.2657 25.8006 11.4988Z" fill="#F1F2F2"/>
</svg>
